#Comment line ignore any data following # character 
#Hierarchical Translation and Rotation (.htr) file 
[Header]	
#Header keywords are followed by a single value 
FileType HTR		#Single word string
DataType HTRS		#Translation followed by rotation and scale data
FileVersion 1		#integer
NumSegments 64		#integer
NumFrames 3		#integer
DataFrameRate 30		#integer, data frame rate in this file
EulerRotationOrder ZYX
CalibrationUnits mm
RotationUnits Degrees
GlobalAxisofGravity Y
BoneLengthAxis Y
ScaleFactor 1.00
[SegmentNames&Hierarchy]
#CHILD	PARENT
Pinger_Root GLOBAL
Pelvis Pinger_Root
L_Hip Pelvis
R_Hip Pelvis
Rear_Leg01 Pelvis
Spine1 Pelvis
L_Leg01 L_Hip
L_Leg02 L_Leg01
L_Leg03 L_Leg02
L_Foot L_Leg03
L_Toe1_01 L_Foot
L_Toe2_01 L_Foot
L_Toe3_01 L_Foot
planeAlignerLeft L_Foot
L_Toe1_02 L_Toe1_01
L_Toe1_03 L_Toe1_02
L_Toe2_02 L_Toe2_01
L_Toe2_03 L_Toe2_02
L_Toe3_02 L_Toe3_01
L_Toe3_03 L_Toe3_02
planeLockWeightLeft planeAlignerLeft
R_Leg01 R_Hip
R_Leg02 R_Leg01
R_Leg03 R_Leg02
R_Foot R_Leg03
planeAlignerRight R_Foot
R_Toe1_01 R_Foot
R_Toe2_01 R_Foot
R_Toe3_01 R_Foot
planeLockWeightRight planeAlignerRight
R_Toe1_02 R_Toe1_01
R_Toe1_03 R_Toe1_02
R_Toe2_02 R_Toe2_01
R_Toe2_03 R_Toe2_02
R_Toe3_02 R_Toe3_01
R_Toe3_03 R_Toe3_02
Rear_Leg02 Rear_Leg01
Rear_Leg03 Rear_Leg02
Rear_Leg04 Rear_Leg03
Rear_Foot Rear_Leg04
planeAlignerCenter Rear_Foot
Rear_Toe1_01 Rear_Foot
Rear_Toe2_01 Rear_Foot
Rear_Toe3_01 Rear_Foot
planeLockWeightCenter planeAlignerCenter
Rear_Toe1_02 Rear_Toe1_01
Rear_Toe1_03 Rear_Toe1_02
Rear_Toe2_02 Rear_Toe2_01
Rear_Toe2_03 Rear_Toe2_02
Rear_Toe3_02 Rear_Toe3_01
Rear_Toe3_03 Rear_Toe3_02
Back_Bone Spine1
Head Spine1
Motor_Bone Back_Bone
Ping_Mechanism Back_Bone
BN_LookIK Head
bottomMouth Head
L_Mouth01 Head
L_mouthFront Head
mouthGun Head
R_Mouth01 Head
R_mouthFront Head
TopMouth Head
weapon_bone Head
[BasePosition]
#SegmentName Tx, Ty, Tz, Rx, Ry, Rz, BoneLength
Pinger_Root 0.000000 0.000000 0.000000 -90.000000 0.000000 0.000000 10.000000 
Pelvis 0.000000 0.000000 0.000000 0.000000 0.000000 0.000000 10.000000 
L_Hip 0.000000 0.000000 0.000000 0.000000 0.000000 0.000000 10.000000 
R_Hip 0.000000 0.000000 0.000000 0.000000 0.000000 0.000000 10.000000 
Rear_Leg01 0.000000 0.000000 0.000000 0.000000 0.000000 0.000000 10.000000 
Spine1 0.000000 0.000000 0.000000 0.000000 0.000000 0.000000 10.000000 
L_Leg01 0.000000 0.000000 0.000000 0.000000 0.000000 0.000000 10.000000 
L_Leg02 0.000000 0.000000 0.000000 0.000000 0.000000 0.000000 10.000000 
L_Leg03 0.000000 0.000000 0.000000 0.000000 0.000000 0.000000 10.000000 
L_Foot 0.000000 0.000000 0.000000 0.000000 0.000000 0.000000 10.000000 
L_Toe1_01 0.000000 0.000000 0.000000 0.000000 0.000000 0.000000 10.000000 
L_Toe2_01 0.000000 0.000000 0.000000 0.000000 0.000000 0.000000 10.000000 
L_Toe3_01 0.000000 0.000000 0.000000 0.000000 0.000000 0.000000 10.000000 
planeAlignerLeft 0.000000 0.000000 0.000000 0.000000 0.000000 0.000000 10.000000 
L_Toe1_02 0.000000 0.000000 0.000000 0.000000 0.000000 0.000000 10.000000 
L_Toe1_03 0.000000 0.000000 0.000000 0.000000 0.000000 0.000000 10.000000 
L_Toe2_02 0.000000 0.000000 0.000000 0.000000 0.000000 0.000000 10.000000 
L_Toe2_03 0.000000 0.000000 0.000000 0.000000 0.000000 0.000000 10.000000 
L_Toe3_02 0.000000 0.000000 0.000000 0.000000 0.000000 0.000000 10.000000 
L_Toe3_03 0.000000 0.000000 0.000000 0.000000 0.000000 0.000000 10.000000 
planeLockWeightLeft 0.000000 0.000000 0.000000 0.000000 0.000000 0.000000 10.000000 
R_Leg01 0.000000 0.000000 0.000000 0.000000 0.000000 0.000000 10.000000 
R_Leg02 0.000000 0.000000 0.000000 0.000000 0.000000 0.000000 10.000000 
R_Leg03 0.000000 0.000000 0.000000 0.000000 0.000000 0.000000 10.000000 
R_Foot 0.000000 0.000000 0.000000 0.000000 0.000000 0.000000 10.000000 
planeAlignerRight 0.000000 0.000000 0.000000 0.000000 0.000000 0.000000 10.000000 
R_Toe1_01 0.000000 0.000000 0.000000 0.000000 0.000000 0.000000 10.000000 
R_Toe2_01 0.000000 0.000000 0.000000 0.000000 0.000000 0.000000 10.000000 
R_Toe3_01 0.000000 0.000000 0.000000 0.000000 0.000000 0.000000 10.000000 
planeLockWeightRight 0.000000 0.000000 0.000000 0.000000 0.000000 0.000000 10.000000 
R_Toe1_02 0.000000 0.000000 0.000000 0.000000 0.000000 0.000000 10.000000 
R_Toe1_03 0.000000 0.000000 0.000000 0.000000 0.000000 0.000000 10.000000 
R_Toe2_02 0.000000 0.000000 0.000000 0.000000 0.000000 0.000000 10.000000 
R_Toe2_03 0.000000 0.000000 0.000000 0.000000 0.000000 0.000000 10.000000 
R_Toe3_02 0.000000 0.000000 0.000000 0.000000 0.000000 0.000000 10.000000 
R_Toe3_03 0.000000 0.000000 0.000000 0.000000 0.000000 0.000000 10.000000 
Rear_Leg02 0.000000 0.000000 0.000000 0.000000 0.000000 0.000000 10.000000 
Rear_Leg03 0.000000 0.000000 0.000000 0.000000 0.000000 0.000000 10.000000 
Rear_Leg04 0.000000 0.000000 0.000000 0.000000 0.000000 0.000000 10.000000 
Rear_Foot 0.000000 0.000000 0.000000 0.000000 0.000000 0.000000 10.000000 
planeAlignerCenter 0.000000 0.000000 0.000000 0.000000 0.000000 0.000000 10.000000 
Rear_Toe1_01 0.000000 0.000000 0.000000 0.000000 0.000000 0.000000 10.000000 
Rear_Toe2_01 0.000000 0.000000 0.000000 0.000000 0.000000 0.000000 10.000000 
Rear_Toe3_01 0.000000 0.000000 0.000000 0.000000 0.000000 0.000000 10.000000 
planeLockWeightCenter 0.000000 0.000000 0.000000 0.000000 0.000000 0.000000 10.000000 
Rear_Toe1_02 0.000000 0.000000 0.000000 0.000000 0.000000 0.000000 10.000000 
Rear_Toe1_03 0.000000 0.000000 0.000000 0.000000 0.000000 0.000000 10.000000 
Rear_Toe2_02 0.000000 0.000000 0.000000 0.000000 0.000000 0.000000 10.000000 
Rear_Toe2_03 0.000000 0.000000 0.000000 0.000000 0.000000 0.000000 10.000000 
Rear_Toe3_02 0.000000 0.000000 0.000000 0.000000 0.000000 0.000000 10.000000 
Rear_Toe3_03 0.000000 0.000000 0.000000 0.000000 0.000000 0.000000 10.000000 
Back_Bone 0.000000 0.000000 0.000000 0.000000 0.000000 0.000000 10.000000 
Head 0.000000 0.000000 0.000000 0.000000 0.000000 0.000000 10.000000 
Motor_Bone 0.000000 0.000000 0.000000 0.000000 0.000000 0.000000 10.000000 
Ping_Mechanism 0.000000 0.000000 0.000000 0.000000 0.000000 0.000000 10.000000 
BN_LookIK 0.000000 0.000000 0.000000 0.000000 0.000000 0.000000 10.000000 
bottomMouth 0.000000 0.000000 0.000000 0.000000 0.000000 0.000000 10.000000 
L_Mouth01 0.000000 0.000000 0.000000 0.000000 0.000000 0.000000 10.000000 
L_mouthFront 0.000000 0.000000 0.000000 0.000000 0.000000 0.000000 10.000000 
mouthGun 0.000000 0.000000 0.000000 0.000000 0.000000 0.000000 10.000000 
R_Mouth01 0.000000 0.000000 0.000000 0.000000 0.000000 0.000000 10.000000 
R_mouthFront 0.000000 0.000000 0.000000 0.000000 0.000000 0.000000 10.000000 
TopMouth 0.000000 0.000000 0.000000 0.000000 0.000000 0.000000 10.000000 
weapon_bone 0.000000 0.000000 0.000000 0.000000 0.000000 0.000000 10.000000 
#Beginning of Data. Separated by tabs
#Fr	Tx	Ty	Tz	Rx	Ry	Rz	SF
[Pinger_Root]
614 0.000000 -4617.691895 0.000000 -0.000075 -0.000000 -0.000020 4617.691895
615 0.000000 -4512.066406 0.000000 -0.000075 -0.000000 -0.000020 4512.066406
616 0.000000 -4396.538574 0.000000 -0.000075 -0.000000 -0.000020 4396.539063
[Pelvis]
614 5839.269531 19219.656250 7900.696289 59.051537 -76.328674 -152.038834 21585.023438
615 5947.065430 19108.576172 7848.715820 56.756657 -75.810471 -148.288147 21496.689453
616 6042.689453 19003.517578 7789.146973 54.690498 -75.254982 -144.763657 21408.375000
[L_Hip]
614 5.766392 125.831482 872.656799 -178.253311 -81.787712 87.381248 881.701050
615 5.766392 125.831482 872.656799 -178.253311 -81.787758 87.381340 881.701050
616 5.766392 125.831482 872.656799 -178.253311 -81.787712 87.381248 881.701050
[R_Hip]
614 5.765438 125.836372 -872.654907 -1.746714 81.787758 87.381248 881.699829
615 5.765438 125.836372 -872.654907 -1.746690 81.787712 87.381248 881.699829
616 5.765438 125.836372 -872.654907 -1.746690 81.787712 87.381248 881.699829
[Rear_Leg01]
614 -192.298416 -925.602966 -0.001907 170.688278 5.489104 163.888580 945.367432
615 -192.298416 -925.602966 -0.001907 171.676056 6.300731 162.807938 945.367432
616 -192.298416 -925.602966 -0.001907 173.224228 7.947695 166.018173 945.367432
[Spine1]
614 290.604584 5.007505 0.000477 3.583189 -5.226252 40.716293 290.647736
615 290.604584 5.007505 0.000477 1.696398 -5.059909 40.246483 290.647736
616 290.604584 5.007505 0.000477 -0.192271 -4.908432 39.773758 290.647736
[L_Leg01]
614 761.932007 -0.002384 -0.069261 74.642944 4.444021 -86.560501 761.932068
615 761.932007 -0.002384 -0.069261 75.322006 6.081949 -87.568672 761.932068
616 761.932007 -0.002384 -0.069261 75.973915 7.735759 -88.561302 761.932068
[L_Leg02]
614 1441.140503 -0.000954 -0.000715 -1.324478 0.780424 -94.348175 1441.140503
615 1441.140503 -0.000954 -0.000715 -1.350373 0.760583 -94.163811 1441.140503
616 1441.140503 -0.000954 -0.000715 -1.382717 0.725065 -94.310326 1441.140503
[L_Leg03]
614 1686.963989 -0.000715 -0.000954 0.086684 -0.011330 86.460548 1686.963989
615 1686.963989 -0.000715 -0.000954 0.083098 -0.015971 87.932365 1686.963989
616 1686.963989 -0.000715 -0.000954 0.072338 -0.013998 89.993195 1686.963989
[L_Foot]
614 3041.570068 -30.715107 11.297464 -8.982997 16.395100 88.699974 3041.746094
615 3041.570068 -30.715107 11.297464 -9.378675 15.853269 88.822098 3041.746094
616 3041.570068 -30.715107 11.297464 -9.684838 15.076949 88.714607 3041.746094
[L_Toe1_01]
614 -188.216690 -224.732346 -21.137953 89.288567 -1.841345 -160.833252 293.899567
615 -188.216690 -224.732346 -21.137953 89.237732 -1.822739 -159.595322 293.899567
616 -188.216690 -224.732346 -21.137953 89.187180 -1.803035 -158.356140 293.899567
[L_Toe2_01]
614 200.746536 -219.926590 148.838394 -77.281471 -13.191695 -46.495552 332.896027
615 200.746536 -219.926590 148.838394 -77.062164 -13.023542 -47.464592 332.896027
616 200.746536 -219.926590 148.838394 -76.783516 -12.775394 -48.761246 332.896027
[L_Toe3_01]
614 188.832520 -219.859131 -191.078659 -106.564629 16.392250 -48.424835 347.140900
615 188.832520 -219.859131 -191.078659 -106.831459 16.172806 -49.394196 347.140900
616 188.832520 -219.859131 -191.078659 -107.181229 15.845736 -50.699387 347.140900
[planeAlignerLeft]
614 0.812531 -811.448792 -0.314951 0.000000 -90.000000 -90.001900 811.449280
615 0.812531 -811.448792 -0.314951 0.000000 -90.000000 -90.001900 811.449280
616 0.812531 -811.448792 -0.314951 0.000000 -90.000000 -90.001900 811.449280
[L_Toe1_02]
614 413.761139 0.000477 0.000000 0.001396 -24.405909 0.001396 413.761139
615 413.761139 0.000477 0.000000 0.001394 -24.633461 0.001394 413.761139
616 413.761139 0.000477 0.000000 0.001393 -24.861017 0.001393 413.761139
[L_Toe1_03]
614 464.317322 0.000358 -0.000089 0.007369 71.672028 0.007369 464.317322
615 464.317322 0.000358 -0.000089 0.006790 70.094948 0.006790 464.317322
616 464.317322 0.000358 -0.000089 0.006226 68.269707 0.006226 464.317322
[L_Toe2_02]
614 342.235809 -0.000477 0.000238 0.001180 -78.504158 0.001180 342.235809
615 342.235809 -0.000477 0.000238 0.001180 -78.378456 0.001180 342.235809
616 342.235809 -0.000477 0.000238 0.001180 -78.092918 0.001180 342.235809
[L_Toe2_03]
614 420.210846 -0.000715 0.000000 -179.997787 73.387001 -179.994263 420.210846
615 420.210846 -0.000715 0.000000 -179.997559 74.276764 -179.994034 420.210846
616 420.210846 -0.000715 0.000000 -179.997223 75.466751 -179.993698 420.210846
[L_Toe3_02]
614 329.270111 0.000954 0.000000 0.001176 -82.051201 0.001176 329.270111
615 329.270111 0.000954 0.000000 0.001177 -81.811966 0.001177 329.270111
616 329.270111 0.000954 0.000000 0.001177 -81.571861 0.001177 329.270111
[L_Toe3_03]
614 439.137451 -0.001907 0.000954 -179.998154 71.742844 -179.994614 439.137451
615 439.137451 -0.001907 0.000954 -179.997971 72.580292 -179.994431 439.137451
616 439.137451 -0.001907 0.000954 -179.997711 73.703987 -179.994171 439.137451
[planeLockWeightLeft]
614 -0.000954 0.000238 -0.000305 -0.011826 -0.004376 0.005620 0.001029
615 -0.000954 0.000238 -0.000305 -0.011826 -0.004376 0.005620 0.001029
616 -0.000954 0.000238 -0.000305 -0.011826 -0.004376 0.005620 0.001029
[R_Leg01]
614 761.455627 -0.001907 -0.000358 80.492622 -2.070845 79.434990 761.455688
615 761.455627 -0.001907 -0.000358 79.167465 1.539004 80.304993 761.455688
616 761.455627 -0.001907 -0.000358 77.990280 -9.810866 81.034508 761.455688
[R_Leg02]
614 1441.140625 0.000000 -0.000238 0.139973 -0.078434 -112.004471 1441.140625
615 1441.140625 0.000000 -0.000238 0.146716 -0.094839 -115.287872 1441.140625
616 1441.140625 0.000000 -0.000238 0.022624 -0.061536 -129.431961 1441.140625
[R_Leg03]
614 1686.963989 0.000954 0.001431 -0.103882 0.013477 81.671921 1686.963989
615 1686.963989 0.000954 0.001431 -0.081877 0.012786 88.274567 1686.963989
616 1686.963989 0.000954 0.001431 -0.067473 0.014853 91.468536 1686.963989
[R_Foot]
614 3041.560059 -30.531288 -11.204481 26.995764 -30.171057 78.135399 3041.734131
615 3041.560059 -30.531288 -11.204481 28.964586 -32.253201 74.201675 3041.734131
616 3041.560059 -30.531288 -11.204481 30.640680 -34.373707 73.085526 3041.734131
[planeAlignerRight]
614 -0.635147 -812.270569 -0.364304 0.000000 -89.960434 -90.005180 812.270874
615 -0.635147 -812.270569 -0.364304 0.000000 -89.960434 -90.005180 812.270874
616 -0.635147 -812.270569 -0.364304 0.000000 -89.960434 -90.005180 812.270874
[R_Toe1_01]
614 -188.383347 -224.864899 21.052242 91.178993 0.713865 -142.788712 294.101532
615 -188.383347 -224.864899 21.052242 91.200272 0.709316 -143.538788 294.101532
616 -188.383347 -224.864899 21.052242 91.260956 0.702680 -145.417236 294.101532
[R_Toe2_01]
614 200.637817 -220.002121 -148.787384 -105.340782 9.367540 -61.130569 332.857574
615 200.637817 -220.002121 -148.787384 -105.682449 9.273098 -63.122669 332.857574
616 200.637817 -220.002121 -148.787384 -106.422958 8.227956 -68.862144 332.857574
[R_Toe3_01]
614 188.606735 -220.092957 191.126343 -69.392204 -13.390704 -63.634258 347.192566
615 188.606735 -220.092957 191.126343 -69.042679 -13.307816 -65.531799 347.192566
616 188.606735 -220.092957 191.126343 -68.313957 -12.098685 -70.990723 347.192566
[planeLockWeightRight]
614 -0.000477 0.000000 0.000000 -0.011823 -0.004379 -0.000027 0.000477
615 -0.000477 0.000000 0.000000 -0.011823 -0.004379 -0.000027 0.000477
616 -0.000477 0.000000 0.000000 -0.011823 -0.004379 -0.000027 0.000477
[R_Toe1_02]
614 413.762085 0.000477 -0.000119 0.001402 -23.683514 0.001402 413.762085
615 413.762085 0.000477 -0.000119 0.001387 -25.649046 0.001387 413.762085
616 413.762085 0.000477 -0.000119 0.001390 -25.163084 0.001390 413.762085
[R_Toe1_03]
614 464.317810 0.000000 0.001088 0.000733 34.790169 -0.003213 464.317810
615 464.317810 0.000000 0.001088 0.003121 46.004715 0.003105 464.317810
616 464.317810 0.000000 0.001088 0.005604 65.819160 0.005604 464.317810
[R_Toe2_02]
614 342.234741 -0.000954 0.000238 -0.002337 -74.583069 -0.002337 342.234741
615 342.234741 -0.000954 0.000238 -0.002339 -76.878708 -0.002339 342.234741
616 342.234741 -0.000954 0.000238 -0.002333 -79.180550 -0.002333 342.234741
[R_Toe2_03]
614 420.210846 0.000715 -0.000268 -179.961838 88.191490 -179.965332 420.210846
615 420.210846 0.000715 -0.000268 -179.991699 79.932739 -179.995209 420.210846
616 420.210846 0.000715 -0.000268 -179.995102 68.795265 -179.998657 420.210846
[R_Toe3_02]
614 329.270355 -0.000477 -0.000954 0.001180 -77.941040 0.001180 329.270355
615 329.270355 -0.000477 -0.000954 0.001178 -80.273323 0.001178 329.270355
616 329.270355 -0.000477 -0.000954 0.001176 -82.612305 0.001176 329.270355
[R_Toe3_03]
614 439.137939 0.000238 0.001431 -179.976791 87.360405 -179.973297 439.137939
615 439.137939 0.000238 0.001431 -179.995544 79.403412 -179.992020 439.137939
616 439.137939 0.000238 0.001431 -179.998703 68.423508 -179.995163 439.137939
[Rear_Leg02]
614 1162.777710 -0.029802 0.005960 6.579681 -9.616122 -151.895950 1162.777710
615 1162.777710 -0.029802 0.005960 5.137237 -6.932461 -158.005219 1162.777710
616 1162.777710 -0.029802 0.005960 3.804131 -4.306888 -161.242203 1162.777710
[Rear_Leg03]
614 607.192505 -0.013351 -0.073195 0.010308 -0.005468 72.247887 607.192505
615 607.192505 -0.013351 -0.073195 0.010279 -0.005522 72.845406 607.192505
616 607.192505 -0.013351 -0.073195 0.010215 -0.005643 74.189575 607.192505
[Rear_Leg04]
614 995.874512 -0.020504 -0.011921 -0.041491 -0.015733 75.829994 995.874573
615 995.874512 -0.020504 -0.011921 -0.041704 -0.015159 77.408646 995.874573
616 995.874512 -0.020504 -0.011921 -0.045336 -0.017640 80.871811 995.874573
[Rear_Foot]
614 3096.176270 -0.067472 -0.041425 -69.329224 77.503677 89.867897 3096.176270
615 3096.176270 -0.067472 -0.041425 -66.508461 80.564949 95.525177 3096.176270
616 3096.176270 -0.067472 -0.041425 -57.075073 83.127785 106.562271 3096.176270
[planeAlignerCenter]
614 0.350077 0.966311 -838.790894 0.000009 0.000003 -179.999985 838.791565
615 0.350077 0.966311 -838.790894 0.000009 0.000003 -179.999985 838.791565
616 0.350077 0.966311 -838.790894 0.000009 0.000003 -179.999985 838.791565
[Rear_Toe1_01]
614 0.653352 83.966492 -371.173737 0.056920 19.796541 90.027733 380.553192
615 0.653352 83.966492 -371.173737 0.058672 18.497683 90.030220 380.553192
616 0.653352 83.966492 -371.173737 0.060360 17.195539 90.032692 380.553192
[Rear_Toe2_01]
614 178.200760 -294.826019 -362.060547 1.333475 42.484444 -68.824440 499.765686
615 178.200760 -294.826019 -362.060547 0.824704 43.172764 -69.994011 499.765686
616 178.200760 -294.826019 -362.060547 0.289361 43.855114 -71.188675 499.765686
[Rear_Toe3_01]
614 -153.359680 -308.780914 -362.060852 -1.612188 42.511543 -113.760635 499.952881
615 -153.359680 -308.780914 -362.060852 -1.018154 43.241226 -112.446999 499.952881
616 -153.359680 -308.780914 -362.060852 -0.392193 43.962681 -111.103371 499.952881
[planeLockWeightCenter]
614 -0.000062 0.000238 0.000000 -0.011814 -0.004373 -0.000015 0.000246
615 -0.000062 0.000238 0.000000 -0.011814 -0.004373 -0.000015 0.000246
616 -0.000062 0.000238 0.000000 -0.011814 -0.004373 -0.000015 0.000246
[Rear_Toe1_02]
614 379.707825 0.194073 0.000477 0.001332 -33.484848 0.001332 379.707855
615 379.707825 0.194073 0.000477 0.001332 -33.593304 0.001332 379.707855
616 379.707825 0.194073 0.000477 -0.002623 -33.254471 -0.002623 379.707855
[Rear_Toe1_03]
614 500.129700 0.165701 0.000119 -0.004889 68.702507 -0.001331 500.129761
615 500.129700 0.165701 0.000119 0.009498 75.908432 0.009513 500.129761
616 500.129700 0.165701 0.000119 -0.009403 84.167328 -0.012888 500.129761
[Rear_Toe2_02]
614 340.494507 0.000238 -0.000954 0.001158 -88.653900 0.001158 340.494507
615 340.494507 0.000238 -0.000954 0.001174 -86.718964 0.001174 340.494507
616 340.494507 0.000238 -0.000954 0.001175 -83.667168 0.001175 340.494507
[Rear_Toe2_03]
614 433.103577 0.000000 0.000238 -179.994766 70.926231 -179.998306 433.103546
615 433.103577 0.000000 0.000238 -179.993317 76.613091 -179.996841 433.103546
616 433.103577 0.000000 0.000238 179.975922 84.449455 179.975906 433.103546
[Rear_Toe3_02]
614 340.494141 -0.000358 -0.000477 0.001189 -88.550438 0.001189 340.494171
615 340.494141 -0.000358 -0.000477 0.001174 -86.630653 0.001174 340.494171
616 340.494141 -0.000358 -0.000477 0.001175 -83.600739 0.001175 340.494171
[Rear_Toe3_03]
614 433.103577 0.001431 -0.000238 -179.998245 71.260674 -179.994690 433.103546
615 433.103577 0.001431 -0.000238 -179.996750 76.865822 -179.993225 433.103546
616 433.103577 0.001431 -0.000238 -179.989548 84.603699 -179.986053 433.103546
[Back_Bone]
614 1312.175781 -701.934692 0.000954 -2.397784 -3.648172 -81.248268 1488.125488
615 1312.175781 -701.934692 0.000954 -2.141322 -3.651018 -80.804977 1488.125488
616 1312.175781 -701.934692 0.000954 -1.771751 -3.648976 -80.525742 1488.125488
[Head]
614 1406.159424 809.709290 0.001431 -3.526023 0.020862 1.055152 1622.625488
615 1406.159424 809.709290 0.001431 -3.281152 -0.296815 2.482927 1622.625488
616 1406.159424 809.709290 0.001431 -2.993631 -0.607768 3.708575 1622.625488
[Motor_Bone]
614 1158.364380 -417.834747 0.000477 -1.572662 -0.002555 -105.990082 1231.419434
615 1158.364380 -417.834747 0.000477 -1.187241 1.561164 -104.425041 1231.419434
616 1158.364380 -417.834747 0.000477 -0.669812 2.819770 -103.163376 1231.419434
[Ping_Mechanism]
614 1182.490479 -401.221893 18.693483 0.000103 -0.000053 82.120995 1248.844360
615 1182.898926 -401.111053 24.076677 0.000103 -0.000053 82.120995 1249.287598
616 1183.294434 -400.986267 29.461199 0.000103 -0.000053 82.120995 1249.737427
[BN_LookIK]
614 193.241119 1380.371704 -0.002861 0.000000 89.965736 -31.038179 1393.832153
615 193.241119 1380.371704 -0.002861 0.000000 89.965736 -31.038179 1393.832153
616 193.241119 1380.371704 -0.002861 0.000000 89.965736 -31.038179 1393.832153
[bottomMouth]
614 -435.092926 615.759399 -0.000954 -0.000022 0.000016 73.527184 753.966492
615 -435.092926 615.759399 -0.000954 -0.000022 0.000016 73.527184 753.966492
616 -435.092926 615.759399 -0.000954 -0.000022 0.000016 73.527184 753.966492
[L_Mouth01]
614 554.440979 7.658243 838.222046 150.204178 23.759130 109.605339 1005.027161
615 554.440979 7.658243 838.222046 150.204178 23.759130 109.605339 1005.027161
616 554.440979 7.658243 838.222046 150.204178 23.759130 109.605339 1005.027161
[L_mouthFront]
614 551.629089 934.514771 339.150421 0.000081 2.804060 79.119301 1136.941284
615 551.629089 934.514771 339.150421 0.000081 2.804060 79.119301 1136.941284
616 551.629089 934.514771 339.150421 0.000081 2.804060 79.119301 1136.941284
[mouthGun]
614 55.332661 1627.420898 0.000000 0.000023 0.000009 -11.038128 1628.361328
615 55.332661 1627.420898 0.000000 0.000023 0.000009 -11.038128 1628.361328
616 55.332661 1627.420898 0.000000 0.000023 0.000009 -11.038128 1628.361328
[R_Mouth01]
614 554.442383 7.659197 -838.223938 29.795891 -23.759109 109.605331 1005.029541
615 554.442383 7.659197 -838.223938 29.795891 -23.759109 109.605331 1005.029541
616 554.442383 7.659197 -838.223938 29.795891 -23.759109 109.605331 1005.029541
[R_mouthFront]
614 551.629089 934.514282 -339.151367 0.000029 -2.803930 79.119133 1136.941162
615 551.629089 934.514282 -339.151367 0.000029 -2.803930 79.119133 1136.941162
616 551.629089 934.514282 -339.151367 0.000029 -2.803930 79.119133 1136.941162
[TopMouth]
614 461.269867 -56.106091 -0.008583 -0.000059 -0.000268 92.025169 464.669525
615 461.269867 -56.106091 -0.008583 -0.000059 -0.000268 92.025169 464.669525
616 461.269867 -56.106091 -0.008583 -0.000059 -0.000268 92.025169 464.669525
[weapon_bone]
614 -987.239868 1448.372803 0.001431 0.000000 89.965736 -31.038221 1752.833740
615 -987.239868 1448.372803 0.001431 0.000000 89.965736 -31.038221 1752.833740
616 -987.239868 1448.372803 0.001431 0.000000 89.965736 -31.038221 1752.833740
